<svg width="16" height="16" viewBox="0 0 16 16" fill="none" xmlns="http://www.w3.org/2000/svg">
<rect width="16" height="16"/>
<path d="M4.33337 7.99998C4.33337 7.905 4.35087 7.81752 4.38586 7.73754C4.42085 7.65256 4.47334 7.57507 4.54333 7.50509L10.4895 1.68641C10.6244 1.55644 10.7869 1.49146 10.9769 1.49146C11.1068 1.49146 11.2218 1.52145 11.3218 1.58143C11.4268 1.64142 11.5092 1.7239 11.5692 1.82888C11.6342 1.92886 11.6667 2.04383 11.6667 2.1738C11.6667 2.35876 11.5992 2.52122 11.4643 2.66119L6.00549 7.99998L11.4643 13.3388C11.5992 13.4787 11.6667 13.6412 11.6667 13.8262C11.6667 13.9561 11.6342 14.0711 11.5692 14.1711C11.5092 14.2761 11.4268 14.3585 11.3218 14.4185C11.2218 14.4785 11.1068 14.5085 10.9769 14.5085C10.7869 14.5085 10.6244 14.441 10.4895 14.306L4.54333 8.49486C4.47334 8.42488 4.42085 8.3499 4.38586 8.26992C4.35087 8.18493 4.33337 8.09495 4.33337 7.99998Z" fill="#000000"/>
</svg>
